<?xml version="1.0" encoding="UTF-8" standalone="no"?>
<svg
   xmlns:dc="http://purl.org/dc/elements/1.1/"
   xmlns:cc="http://creativecommons.org/ns#"
   xmlns:rdf="http://www.w3.org/1999/02/22-rdf-syntax-ns#"
   xmlns:svg="http://www.w3.org/2000/svg"
   xmlns="http://www.w3.org/2000/svg"
   id="svg8"
   version="1.1"
   viewBox="0 0 13.229166 13.229167"
   height="50"
   width="50">
  <defs
     id="defs2" />
  <metadata
     id="metadata5">
    <rdf:RDF>
      <cc:Work
         rdf:about="">
        <dc:format>image/svg+xml</dc:format>
        <dc:type
           rdf:resource="http://purl.org/dc/dcmitype/StillImage" />
        <dc:title></dc:title>
      </cc:Work>
    </rdf:RDF>
  </metadata>
  <g
     transform="translate(0,-283.77082)"
     id="layer1">
    <circle
       r="6.3547244"
       cy="290.38541"
       cx="6.6145835"
       id="path815"
       style="opacity:0.5;fill:#5a93d7;fill-opacity:1;stroke:none;stroke-width:6;stroke-linecap:square;stroke-linejoin:miter;stroke-miterlimit:4;stroke-dasharray:none;stroke-dashoffset:0;stroke-opacity:1" />
    <g
       id="text819"
       style="font-style:normal;font-weight:normal;font-size:14.53824043px;line-height:1.25;font-family:sans-serif;letter-spacing:0px;word-spacing:0px;fill:#000000;fill-opacity:1;stroke:none;stroke-width:0.36345601"
       aria-label="?">
      <path
         id="path821"
         style="font-style:normal;font-variant:normal;font-weight:normal;font-stretch:normal;font-family:'Linux Libertine Mono O';-inkscape-font-specification:'Linux Libertine Mono O';stroke-width:0.36345601"
         d="m 4.7820476,287.21448 c 0,-0.43615 0.6542208,-1.16306 1.7882036,-1.16306 1.1339827,0 1.6718976,0.93045 1.6718976,2.00628 0,0.6833 -0.2035353,1.13398 -1.0031386,1.6719 -1.1049062,0.74145 -1.1630592,1.49744 -1.1630592,2.12258 v 0.56699 c 0,0.10177 0.087229,0.14538 0.2326119,0.14538 0.1453824,0 0.24715,-0.0436 0.24715,-0.14538 v -0.53791 c 0,-0.34892 0.058153,-0.47977 0.2907648,-0.84322 0.1599207,-0.24715 0.479762,-0.4943 0.901371,-0.72691 0.7996032,-0.43615 1.9045095,-1.16306 1.9045095,-2.31158 0,-1.42475 -1.0031386,-2.48604 -2.776804,-2.48604 -0.9304474,0 -1.8027418,0.37799 -2.3115802,0.74145 -0.5233767,0.34892 -0.8868327,0.87229 -0.8868327,1.42475 0,0.50883 0.4361472,0.77052 0.7123738,0.77052 0.3343795,0 0.6106061,-0.17446 0.6106061,-0.50884 0,-0.18899 -0.043615,-0.27622 -0.1163059,-0.34891 -0.072691,-0.0727 -0.1017677,-0.15992 -0.1017677,-0.378 z m 0.6978355,7.15282 c 0,0.46522 0.4070708,0.87229 0.8868327,0.87229 0.4797619,0 0.8868327,-0.40707 0.8868327,-0.87229 0,-0.46523 -0.4070708,-0.8723 -0.8868327,-0.8723 -0.4797619,0 -0.8868327,0.40707 -0.8868327,0.8723 z" />
    </g>
    <path
       id="rect824"
       transform="matrix(0.26458333,0,0,0.26458333,0,283.77082)"
       d="M 33.998047 9.5097656 L 31.908203 21.230469 L 25.765625 26.488281 L 25.029297 28.994141 L 23.085938 33.017578 L 36.263672 46.193359 A 24.017856 24.017856 0 0 0 49.017578 25 A 24.017856 24.017856 0 0 0 49 24.511719 L 33.998047 9.5097656 z "
       style="opacity:0.5;fill:#5a93d7;fill-opacity:1;stroke:none;stroke-width:22.67716599;stroke-linecap:square;stroke-linejoin:miter;stroke-miterlimit:4;stroke-dasharray:none;stroke-dashoffset:0;stroke-opacity:1" />
    <path
       id="rect826"
       transform="matrix(0.26458333,0,0,0.26458333,0,283.77082)"
       d="M 26.326172 37.652344 L 21.664062 42.314453 L 28.132812 48.783203 A 24.017856 24.017856 0 0 0 35.330078 46.65625 L 26.326172 37.652344 z "
       style="opacity:0.5;fill:#5a93d7;fill-opacity:1;stroke:none;stroke-width:22.67716599;stroke-linecap:square;stroke-linejoin:miter;stroke-miterlimit:4;stroke-dasharray:none;stroke-dashoffset:0;stroke-opacity:1" />
    <g
       aria-label="?"
       style="font-style:normal;font-weight:normal;font-size:14.53824043px;line-height:1.25;font-family:sans-serif;letter-spacing:0px;word-spacing:0px;fill:#000000;fill-opacity:1;stroke:none;stroke-width:0.36345601"
       id="g833">
      <path
         d="m 4.7820476,287.21448 c 0,-0.43615 0.6542208,-1.16306 1.7882036,-1.16306 1.1339827,0 1.6718976,0.93045 1.6718976,2.00628 0,0.6833 -0.2035353,1.13398 -1.0031386,1.6719 -1.1049062,0.74145 -1.1630592,1.49744 -1.1630592,2.12258 v 0.56699 c 0,0.10177 0.087229,0.14538 0.2326119,0.14538 0.1453824,0 0.24715,-0.0436 0.24715,-0.14538 v -0.53791 c 0,-0.34892 0.058153,-0.47977 0.2907648,-0.84322 0.1599207,-0.24715 0.479762,-0.4943 0.901371,-0.72691 0.7996032,-0.43615 1.9045095,-1.16306 1.9045095,-2.31158 0,-1.42475 -1.0031386,-2.48604 -2.776804,-2.48604 -0.9304474,0 -1.8027418,0.37799 -2.3115802,0.74145 -0.5233767,0.34892 -0.8868327,0.87229 -0.8868327,1.42475 0,0.50883 0.4361472,0.77052 0.7123738,0.77052 0.3343795,0 0.6106061,-0.17446 0.6106061,-0.50884 0,-0.18899 -0.043615,-0.27622 -0.1163059,-0.34891 -0.072691,-0.0727 -0.1017677,-0.15992 -0.1017677,-0.378 z m 0.6978355,7.15282 c 0,0.46522 0.4070708,0.87229 0.8868327,0.87229 0.4797619,0 0.8868327,-0.40707 0.8868327,-0.87229 0,-0.46523 -0.4070708,-0.8723 -0.8868327,-0.8723 -0.4797619,0 -0.8868327,0.40707 -0.8868327,0.8723 z"
         style="font-style:normal;font-variant:normal;font-weight:normal;font-stretch:normal;font-family:'Linux Libertine Mono O';-inkscape-font-specification:'Linux Libertine Mono O';stroke-width:0.36345601"
         id="path831" />
    </g>
  </g>
</svg>
