<?xml version="1.0" encoding="UTF-8" standalone="no"?>
<svg
   xmlns:dc="http://purl.org/dc/elements/1.1/"
   xmlns:cc="http://creativecommons.org/ns#"
   xmlns:rdf="http://www.w3.org/1999/02/22-rdf-syntax-ns#"
   xmlns:svg="http://www.w3.org/2000/svg"
   xmlns="http://www.w3.org/2000/svg"
   id="svg8"
   version="1.1"
   viewBox="0 0 13.229166 13.229167"
   height="50"
   width="50">
  <defs
     id="defs2" />
  <metadata
     id="metadata5">
    <rdf:RDF>
      <cc:Work
         rdf:about="">
        <dc:format>image/svg+xml</dc:format>
        <dc:type
           rdf:resource="http://purl.org/dc/dcmitype/StillImage" />
        <dc:title></dc:title>
      </cc:Work>
    </rdf:RDF>
  </metadata>
  <g
     transform="translate(0,-283.77082)"
     id="layer1">
    <circle
       r="6.3547244"
       cy="290.38541"
       cx="6.6145835"
       id="path815"
       style="opacity:0.5;fill:#5a93d7;fill-opacity:1;stroke:none;stroke-width:6;stroke-linecap:square;stroke-linejoin:miter;stroke-miterlimit:4;stroke-dasharray:none;stroke-dashoffset:0;stroke-opacity:1" />
    <path
       id="rect931"
       transform="matrix(0.26458333,0,0,0.26458333,0,283.77082)"
       d="M 34.576172 8.8925781 L 34.568359 8.9003906 C 34.60039 8.9281025 34.634277 8.9544372 34.666016 8.9824219 L 34.576172 8.8925781 z M 35.837891 10.154297 C 37.738618 12.308241 38.882812 15.03168 38.882812 17.994141 L 38.882812 17.996094 C 38.882058 18.49218 38.846814 18.98277 38.78125 19.466797 L 32.691406 25.556641 L 32.691406 35.689453 L 22.556641 35.689453 L 17.308594 35.689453 L 19.933594 38.314453 L 18.556641 39.689453 L 20.507812 41.640625 L 18.556641 43.589844 L 23.931641 48.964844 A 24.017856 24.017856 0 0 0 25 49.017578 A 24.017856 24.017856 0 0 0 49.017578 25 A 24.017856 24.017856 0 0 0 48.953125 23.269531 L 35.837891 10.154297 z "
       style="opacity:1;fill:#5a93d7;fill-opacity:0.50196078;stroke:none;stroke-width:3.77952766;stroke-linecap:square;stroke-linejoin:miter;stroke-miterlimit:4;stroke-dasharray:none;stroke-dashoffset:0;stroke-opacity:1" />
    <g
       transform="matrix(0.87714632,0,0,0.87714632,-11.226435,30.668794)"
       id="g927">
      <path
         style="color:#000000;font-style:normal;font-variant:normal;font-weight:normal;font-stretch:normal;font-size:medium;line-height:normal;font-family:sans-serif;font-variant-ligatures:normal;font-variant-position:normal;font-variant-caps:normal;font-variant-numeric:normal;font-variant-alternates:normal;font-feature-settings:normal;text-indent:0;text-align:start;text-decoration:none;text-decoration-line:none;text-decoration-style:solid;text-decoration-color:#000000;letter-spacing:normal;word-spacing:normal;text-transform:none;writing-mode:lr-tb;direction:ltr;text-orientation:mixed;dominant-baseline:auto;baseline-shift:baseline;text-anchor:start;white-space:normal;shape-padding:0;clip-rule:nonzero;display:inline;overflow:visible;visibility:visible;opacity:1;isolation:auto;mix-blend-mode:normal;color-interpolation:sRGB;color-interpolation-filters:linearRGB;solid-color:#000000;solid-opacity:1;vector-effect:none;fill:#000000;fill-opacity:1;fill-rule:nonzero;stroke:none;stroke-width:0.95214164;stroke-linecap:square;stroke-linejoin:miter;stroke-miterlimit:4;stroke-dasharray:none;stroke-dashoffset:0;stroke-opacity:1;color-rendering:auto;image-rendering:auto;shape-rendering:auto;text-rendering:auto;enable-background:accumulate"
         d="m 20.339843,290.18283 c -2.306842,0 -4.187858,1.70528 -4.187858,3.7966 v 4.8e-4 c 0.0011,1.26683 0.720577,2.42378 1.868104,3.12479 v 2.21219 h 4.639509 v -2.21406 c 1.146935,-0.70059 1.866174,-1.85681 1.868104,-3.12292 v -4.8e-4 c 0,-2.09132 -1.881017,-3.7966 -4.187859,-3.7966 z m 0,0.90699 c 1.766402,0 3.187403,1.28824 3.187403,2.88961 -0.0018,1.03941 -0.617104,1.99587 -1.614372,2.50873 l -0.253731,0.13024 v 1.79149 h -2.638599 v -1.78961 l -0.253731,-0.13024 c -0.997825,-0.51315 -1.613244,-1.47062 -1.614372,-2.51061 0,-1.60137 1.421001,-2.88961 3.187402,-2.88961 z"
         id="path894" />
      <path
         style="opacity:1;fill:#000000;fill-opacity:1;stroke:none;stroke-width:2.31782055;stroke-linecap:square;stroke-linejoin:miter;stroke-miterlimit:4;stroke-dasharray:none;stroke-dashoffset:0;stroke-opacity:1"
         d="m 18.396131,299.67558 h 3.887425 v 0.84804 h -3.887425 z"
         id="rect899" />
      <path
         id="path919"
         d="m 18.396131,300.85225 h 3.887425 v 0.84803 h -3.887425 z"
         style="opacity:1;fill:#000000;fill-opacity:1;stroke:none;stroke-width:2.31782055;stroke-linecap:square;stroke-linejoin:miter;stroke-miterlimit:4;stroke-dasharray:none;stroke-dashoffset:0;stroke-opacity:1" />
      <path
         style="opacity:1;fill:#000000;fill-opacity:1;stroke:none;stroke-width:1.2896502;stroke-linecap:square;stroke-linejoin:miter;stroke-miterlimit:4;stroke-dasharray:none;stroke-dashoffset:0;stroke-opacity:1"
         d="m 19.495277,301.83281 h 1.689133 v 0.60422 h -1.689133 z"
         id="path921" />
    </g>
  </g>
</svg>
